<svg width="256" height="256" viewBox="0 0 256 256" fill="none" xmlns="http://www.w3.org/2000/svg">
<g clip-path="url(#clip0_1_2)">
<path d="M215.076 48.1366C198.514 40.5542 181.03 35.1749 163.07 32.1363C160.612 36.5297 158.389 41.0499 156.408 45.678C137.277 42.7953 117.823 42.7953 98.6922 45.678C96.7107 41.0504 94.487 36.5302 92.0304 32.1363C74.0591 35.2006 56.5635 40.5926 39.985 48.1762C7.07251 96.8709 -1.84956 144.356 2.61147 191.167C21.8859 205.408 43.4594 216.238 66.3943 223.188C71.5586 216.242 76.1283 208.873 80.055 201.16C72.5968 198.374 65.3984 194.938 58.5429 190.89C60.3472 189.581 62.1118 188.233 63.8169 186.924C83.7646 196.305 105.536 201.169 127.58 201.169C149.623 201.169 171.395 196.305 191.343 186.924C193.068 188.332 194.832 189.68 196.617 190.89C189.748 194.944 182.537 198.388 175.065 201.18C178.987 208.889 183.557 216.252 188.726 223.188C211.68 216.266 233.27 205.441 252.548 191.187C257.783 136.901 243.606 89.8522 215.076 48.1366ZM85.7057 162.379C73.2742 162.379 63.004 151.097 63.004 137.218C63.004 123.34 72.9174 111.959 85.666 111.959C98.4147 111.959 108.606 123.34 108.388 137.218C108.169 151.097 98.375 162.379 85.7057 162.379ZM169.454 162.379C157.003 162.379 146.772 151.097 146.772 137.218C146.772 123.34 156.686 111.959 169.454 111.959C182.223 111.959 192.334 123.34 192.116 137.218C191.898 151.097 182.123 162.379 169.454 162.379Z" fill="white"/>
</g>
<defs>
<clipPath id="clip0_1_2">
<rect width="252.078" height="191.051" fill="white" transform="translate(1.54102 32.1363)"/>
</clipPath>
</defs>
</svg>
